<svg width="23" height="20" viewBox="0 0 23 20" fill="none" xmlns="http://www.w3.org/2000/svg">
<rect y="3.79739" width="23" height="2.75672" fill="#62E4C6"/>
<rect y="6.5541" width="3.45" height="5.05398" fill="#62E4C6"/>
<path d="M14.7686 10.3559L23 6.55857L21.6689 4.7163L13.4375 8.51368L14.7686 10.3559Z" fill="#62E4C6"/>
<path d="M14.7686 6.35521e-06L23 3.79739L21.6689 5.63965L13.4375 1.84227L14.7686 6.35521e-06Z" fill="#62E4C6"/>
<rect x="23" y="16.2026" width="23" height="2.75672" transform="rotate(180 23 16.2026)" fill="#62E4C6"/>
<rect x="23" y="13.4459" width="3.45" height="5.05398" transform="rotate(180 23 13.4459)" fill="#62E4C6"/>
<path d="M8.23137 9.64405L1.74199e-05 13.4414L1.33114 15.2837L9.5625 11.4863L8.23137 9.64405Z" fill="#62E4C6"/>
<path d="M8.23136 20L4.48282e-07 16.2026L1.33113 14.3603L9.56248 18.1577L8.23136 20Z" fill="#62E4C6"/>
</svg>
