<svg width="98" height="44" viewBox="0 0 98 44" fill="none" xmlns="http://www.w3.org/2000/svg">
<path d="M30.1318 12.7852L31.5977 12.5498L31.833 14.0156L33.2988 13.7812L33.7676 16.7129L35.2334 16.4775L35.4688 17.9434L35.7031 19.4092L37.1689 19.1748L36.9346 17.709L38.3994 17.4736L39.8652 17.2393L40.1006 18.7051L41.5664 18.4697L41.3311 17.0039L44.2627 16.5352L45.7285 16.2998L45.9629 17.7656L47.4287 17.5312L47.6631 18.9971L49.1289 18.7617L49.3643 20.2275L49.5986 21.6934L51.0645 21.459L51.2988 22.9238L51.5342 24.3896L51.7686 25.8555L52.0039 27.3213L52.4727 30.2529L52.708 31.7188L49.7764 32.1875L48.3105 32.4229L46.8447 32.6572L46.6104 31.1914L46.375 29.7256L46.1406 28.2607L45.9062 26.7949L45.6709 25.3291L45.4365 23.8633L43.9707 24.0977L44.2051 25.5635L44.4404 27.0293L42.9746 27.2646L43.209 28.7295L43.4443 30.1953L43.6787 31.6611L43.9141 33.127L42.4482 33.3613L42.6826 34.8271L41.2168 35.0625L38.2852 35.5312L38.0508 34.0664L37.8164 32.6006L37.5811 31.1348L37.3467 29.6689L35.8809 29.9033L36.1152 31.3691L36.3506 32.835L36.585 34.3008L35.1191 34.5352L35.3545 36.001L35.5889 37.4668L34.123 37.7021L31.1914 38.1709L29.7266 38.4062L28.2607 38.6406L28.0254 37.1748L26.5596 37.4102L26.3252 35.9443L24.8594 36.1787L24.625 34.7129L24.3896 33.2471L24.1553 31.7822L22.6895 32.0166L23.6289 37.8789L23.8633 39.3447L24.0986 40.8105L22.6328 41.0459L22.3975 39.5801L20.9316 39.8145L19.4668 40.0498L19.2314 38.584L18.9971 37.1182L18.7617 35.6523L18.293 32.7207L18.0576 31.2549L16.5918 31.4902L17.5312 37.3525L17.7656 38.8184L16.2998 39.0527L16.5352 40.5186L15.0693 40.7539L14.835 39.2881L13.3691 39.5225L13.1338 38.0566L12.8994 36.5918L12.6641 35.126L12.4297 33.6602L10.9639 33.8945L11.1992 35.3604L11.668 38.292L11.9033 39.7578L12.1377 41.2236L10.6719 41.458L10.9072 42.9238L9.44141 43.1582L7.97559 43.3936L6.50977 43.6279L6.27539 42.1621L6.04004 40.6963L4.57422 40.9316L4.10547 38L3.87012 36.5342L2.4043 36.7686L2.16992 35.3037L1.93555 33.8379L0.469727 34.0723L0.234375 32.6064L0 31.1406L1.46582 30.9062L1.23047 29.4404L0.996094 27.9746L2.46191 27.7402L2.22656 26.2744L3.69238 26.04L3.92773 27.5049L4.16211 28.9707L5.62793 28.7363L5.8623 30.2021L6.21484 32.4004L6.09766 31.668L7.5625 31.4326L7.32812 29.9668L8.79395 29.7324L8.55957 28.2666L8.32422 26.8008L9.79004 26.5664L9.55566 25.1006L11.0215 24.8662L12.4873 24.6309L12.7217 26.0967L14.1875 25.8623L15.6533 25.627L15.418 24.1611L18.3496 23.6924L18.584 25.1572L20.0498 24.9229L20.2852 26.3887L20.5195 27.8545L21.9854 27.6191L21.751 26.1543L21.5156 24.6885L21.2812 23.2227L21.0459 21.7568L20.5771 18.8252L22.042 18.5908L21.5732 15.6592L23.0391 15.4248L22.8037 13.959L24.2695 13.7236L24.0352 12.2578L25.5 12.0234L26.9658 11.7891L28.4316 11.5537L29.8975 11.3193L30.1318 12.7852ZM78.2656 3.57227L78.5 5.03809L78.7354 6.50293L77.2695 6.73828L75.8037 6.97266L76.0381 8.43848L74.5723 8.67383L73.1064 8.9082L71.6416 9.14258L68.71 9.6123L70.1758 9.37793L71.6416 9.14258L71.876 10.6084L70.4102 10.8438L70.6455 12.3086L69.1797 12.5439L69.6484 15.4756L70.1182 18.4062L68.6523 18.6416L68.418 17.1758L66.9521 17.4102L66.7178 15.9443L65.252 16.1797L65.4863 17.6455L65.7217 19.1113L64.2559 19.3457L64.4902 20.8115L63.0244 21.0459L63.2598 22.5117L61.7939 22.7461L62.0283 24.2119L60.5625 24.4473L60.7979 25.9131L62.2637 25.6777L63.7285 25.4434L63.4941 23.9775L64.96 23.7432L66.4258 23.5078L66.6602 24.9736L66.8955 26.4395L68.3604 26.2041L68.5957 27.6699L68.8301 29.1357L70.2959 28.9014L71.7617 28.666L71.5273 27.2012L72.9932 26.9658L74.458 26.7314L75.9238 26.4961L77.3896 26.2617L77.1553 24.7959L78.6211 24.5615L80.0859 24.3262L79.8516 22.8604L81.3174 22.626L81.083 21.1602L79.6172 21.3955L79.3818 19.9297L80.8477 19.6943L83.7793 19.2256L85.2451 18.9902L85.4795 20.4561L86.9453 20.2217L87.415 23.1523L87.6494 24.6182L86.1836 24.8535L86.4189 26.3184L84.9531 26.5537L85.1875 28.0195L83.7217 28.2539L82.2568 28.4893L82.4912 29.9541L81.0254 30.1895L79.5596 30.4238L79.7949 31.8896L78.3291 32.124L76.8633 32.3594L75.3975 32.5938L73.9316 32.8291L74.167 34.2949L71.2354 34.7637L69.7695 34.999L68.3037 35.2334L68.0693 33.7676L67.834 32.3018L66.3682 32.5371L66.1338 31.0713L67.5996 30.8369L67.3643 29.3711L65.8994 29.6055L64.4336 29.8398L62.9678 30.0752L61.502 30.3096L60.0361 30.5449L57.1045 31.0137L55.6387 31.249L55.1699 28.3174L54.9346 26.8506V26.8516L55.1699 28.3174L53.7041 28.5518L53.4688 27.0869L53 24.1553L52.7646 22.6895L54.2295 22.4551L53.5264 18.0576L54.9922 17.8232L54.7568 16.3574L53.291 16.5918L51.8262 16.8271L48.8945 17.2959L48.6592 15.8301L47.1943 16.0654L46.959 14.5996L45.4932 14.834L45.2588 13.3691L45.0244 11.9033L46.4893 11.668L47.9551 11.4336L48.1904 12.8994L49.6562 12.6641L49.8906 14.1299L51.3564 13.8955L52.8223 13.6602L52.5869 12.1953L54.0527 11.96L55.5186 11.7256L55.2842 10.2598L56.75 10.0244L56.5146 8.55957L57.9805 8.32422L57.7461 6.8584L59.2109 6.62402L60.6768 6.38965L62.1426 6.1543L62.3779 7.62012L62.8467 10.5518L61.3818 10.7861L59.916 11.0215L60.1504 12.4863L58.6846 12.7217L58.9199 14.1875L60.3848 13.9521L61.8506 13.7178L63.3164 13.4824L64.7822 13.248L64.5479 11.7822L64.3125 10.3164L65.7783 10.082L65.5439 8.61621L67.0098 8.38184L66.7744 6.91602L68.2402 6.68066L71.1719 6.21191L70.9365 4.74609L72.4023 4.51074L73.8682 4.27637L73.6338 2.81055L75.0996 2.57617L76.5645 2.34082L78.0303 2.10645L78.2656 3.57227ZM26.4395 17.8867L26.6738 19.3516L26.9092 20.8174L25.4434 21.0527L25.6777 22.5186L25.9131 23.9834L26.1475 25.4492L26.3828 26.915L27.8477 26.6807L28.083 28.1465L28.3174 29.6123L28.5527 31.0771L30.0186 30.8428L30.4873 33.7744L31.9531 33.5391L31.7188 32.0732L31.4834 30.6084L31.0146 27.6768L32.4795 27.4414L32.2451 25.9766L32.0107 24.5107L31.7754 23.0449L31.541 21.5791L31.3057 20.1133L29.8408 20.3477L29.6055 18.8828L29.3711 17.417L29.1357 15.9512L30.6016 15.7158L29.1348 15.9502L29.1357 15.9512L27.6709 16.1855L27.9053 17.6514L26.4395 17.8867L26.2051 16.4209L26.0068 15.1895L26.4395 17.8867ZM77.9736 11.1348L76.5078 11.3701L76.7422 12.8359L75.2773 13.0703L75.5117 14.5361L74.0459 14.7705L74.2803 16.2363L75.7461 16.002L75.5117 14.5361L76.9775 14.3018L78.4434 14.0664L79.9092 13.832L80.3779 16.7637L80.6133 18.2285L79.1475 18.4639L79.3818 19.9297L77.916 20.1641L78.1514 21.6299L76.6855 21.8643L76.9199 23.3301L77.1553 24.7959L75.6895 25.0312L74.2236 25.2656L73.9893 23.7998L73.7539 22.334L75.2197 22.0996L74.9854 20.6338L74.75 19.168L73.2842 19.4023L73.5195 20.8682L72.0537 21.1035L71.8193 19.6377L71.584 18.1719L71.3496 16.7061L69.8838 16.9404L69.6484 15.4756L71.1143 15.2402L70.8799 13.7744L72.3457 13.54L72.1104 12.0742L71.876 10.6084L73.3418 10.374L74.8076 10.1387L76.2734 9.9043L77.7383 9.66992L77.9736 11.1348ZM95.0928 5.38672L95.3271 6.85254L96.793 6.61719L97.0273 8.08301L97.2627 9.54883L97.7314 12.4805L96.2666 12.7148L96.7354 15.6465L96.9707 17.1123L95.5049 17.3467L95.7393 18.8125L94.2734 19.0479L94.5088 20.5127L93.043 20.748L93.2773 22.2139L91.8115 22.4482L92.0469 23.9141L90.5811 24.1484L89.1152 24.3838L88.6455 21.4521L88.4111 19.9863L89.877 19.752L89.6416 18.2861L89.1729 15.3545L87.707 15.5898L86.2412 15.8242L86.0059 14.3584L85.7715 12.8926L84.3057 13.1279L84.0713 11.6621L82.6055 11.8965L81.1396 12.1318L80.9053 10.666L79.4395 10.9004L79.2041 9.43457L80.6699 9.2002L80.4355 7.73438L81.9014 7.5L81.666 6.03418L83.1318 5.79883L83.3672 7.26465L84.832 7.03027L85.0674 8.49609L86.5332 8.26074L87.999 8.02637L88.2334 9.49219L89.6992 9.25684L89.4639 7.79102L89.2295 6.32617L90.6953 6.09082L90.4609 4.625L91.9258 4.39062L93.3916 4.15527L94.8574 3.9209L95.0928 5.38672ZM58.1582 18.8193L58.3926 20.2852L56.9268 20.5195L57.1621 21.9854L57.3965 23.4512L58.8623 23.2158L58.6279 21.75L60.0938 21.5156L59.8584 20.0498L59.624 18.584L58.1582 18.8193ZM48.2471 3.87012L48.9512 8.26758L48.4824 5.33594L49.9473 5.10156L50.1826 6.56641L50.417 8.03223L51.8828 7.79785L52.1172 9.26367L52.3525 10.7295L49.4209 11.1982L47.9551 11.4336L47.7207 9.96777L47.4854 8.50195L46.0205 8.7373L45.7852 7.27148L45.5508 5.80566L45.3154 4.33984L46.7812 4.10547L47.0166 5.57031L46.5469 2.63965L48.0127 2.4043L48.2471 3.87012ZM53.875 1.46582L54.1104 2.93164L55.5762 2.69629L56.0449 5.62793L56.2803 7.09375L56.5146 8.55957L53.583 9.02832L53.3486 7.56348L53.1143 6.09766L51.6484 6.33203L51.4131 4.86621L50.9443 1.93457L52.4092 1.7002L52.1748 0.234375L53.6406 0L53.875 1.46582Z" fill="#62E4C6"/>
</svg>
