<svg width="78" height="30" viewBox="0 0 78 30" fill="none" xmlns="http://www.w3.org/2000/svg">
<path d="M73 4H77V26H73V30H5V26H1V4H5V0H73V4Z" fill="#3EBB9E"/>
<path d="M74 30H4V26H74V30ZM4 26H0V4H4V26ZM78 26H74V4H78V26ZM74 4H4V0H74V4Z" fill="#355A40"/>
<path d="M10.3814 22.288V9.04H12.5654V6.856H14.9654V9.04H17.1734V13.384H19.0934V9.04H21.3014V6.856H23.7254V9.04H25.8854V22.288H23.4854V9.28H21.5414V13.6H19.3334V20.128H16.9334V13.6H14.7254V9.28H12.8054V22.288H10.3814ZM30.9638 22.288V20.128H28.7798V13.384H30.9638V11.2H37.7318V13.384H39.9398V15.76H37.4918V13.6H31.2038V15.52H35.5718V17.944H31.2038V19.888H37.4918V17.68H39.9398V20.104H37.7318V22.288H30.9638ZM42.8423 22.288V11.2H51.7943V13.384H54.0023V22.288H51.5543V13.6H45.2663V22.288H42.8423ZM58.6201 22.288V20.128H56.4361V11.2H58.8601V19.888H65.1481V11.2H67.5961V20.128H65.3881V22.288H58.6201Z" fill="#62E4C6"/>
</svg>
